<svg xmlns="http://www.w3.org/2000/svg"  width="48px
" viewBox="0 0 595.5 842.249979" height="48px" preserveAspectRatio="xMidYMid meet" version="1.0"><defs><g/><clipPath id="42f7c6e0f3"><path d="M 151.179688 274.59375 L 444.09375 274.59375 L 444.09375 567.25 L 151.179688 567.25 Z M 151.179688 274.59375 " clip-rule="nonzero"/></clipPath></defs><g clip-path="url(#42f7c6e0f3)"><path fill="#673ab7" d="M 151.179688 274.59375 L 444.09375 274.59375 L 444.09375 567.25 L 151.179688 567.25 Z M 151.179688 274.59375 " fill-opacity="1" fill-rule="nonzero"/></g><g fill="#ffffff" fill-opacity="1"><g transform="translate(202.380923, 452.046881)"><g><path d="M 14.414062 0.878906 C 17.179688 0.878906 19.554688 -1.40625 19.554688 -4.21875 C 19.554688 -6.988281 17.179688 -9.316406 14.414062 -9.316406 C 11.6875 -9.316406 9.316406 -6.988281 9.316406 -4.21875 C 9.316406 -1.40625 11.6875 0.878906 14.414062 0.878906 Z M 14.414062 0.878906 "/></g></g></g><g fill="#ffffff" fill-opacity="1"><g transform="translate(231.335645, 452.046881)"><g><path d="M 51.277344 -61.867188 L 51.277344 -12.039062 L 17.925781 -61.867188 L 9.710938 -61.867188 L 9.710938 0 L 17.445312 0 L 17.445312 -50.046875 L 50.792969 0 L 59.097656 0 L 59.097656 -61.867188 Z M 51.277344 -61.867188 "/></g></g></g><g fill="#ffffff" fill-opacity="1"><g transform="translate(300.141543, 452.046881)"><g><path d="M 42.886719 -54.703125 L 42.886719 -61.867188 L 9.710938 -61.867188 L 9.710938 0 L 42.886719 0 L 42.886719 -7.164062 L 17.75 -7.164062 L 17.75 -27.375 L 39.898438 -27.375 L 39.898438 -34.449219 L 17.75 -34.449219 L 17.75 -54.703125 Z M 42.886719 -54.703125 "/></g></g></g><g fill="#ffffff" fill-opacity="1"><g transform="translate(348.384759, 452.046881)"><g><path d="M 42.050781 -61.867188 L 2.460938 -61.867188 L 2.460938 -54.703125 L 18.367188 -54.703125 L 18.367188 0 L 26.1875 0 L 26.1875 -54.703125 L 42.050781 -54.703125 Z M 42.050781 -61.867188 "/></g></g></g></svg>