<svg xmlns="http://www.w3.org/2000/svg" xmlns:xlink="http://www.w3.org/1999/xlink" zoomAndPan="magnify" viewBox="0 0 595.5 842.249979" width="68px" height="68px" preserveAspectRatio="xMidYMid meet" version="1.0"><defs><clipPath id="69ac7efe96"><path d="M 176.621094 299.90625 L 418.859375 299.90625 L 418.859375 542.144531 L 176.621094 542.144531 Z M 176.621094 299.90625 " clip-rule="nonzero"/></clipPath></defs><g clip-path="url(#69ac7efe96)"><path fill="#ffffff" d="M 410.785156 530.035156 C 410.785156 532.257812 408.972656 534.070312 406.746094 534.070312 L 269.480469 534.070312 C 267.257812 534.070312 265.441406 532.257812 265.441406 530.035156 L 265.441406 441.210938 C 265.441406 438.988281 267.257812 437.175781 269.480469 437.175781 L 406.746094 437.175781 C 408.972656 437.175781 410.785156 438.988281 410.785156 441.210938 Z M 184.695312 481.585938 L 184.695312 445.722656 C 198.589844 455.4375 228.367188 460.515625 257.367188 461.289062 L 257.367188 501.613281 C 212.261719 500.382812 184.695312 489.328125 184.695312 481.585938 Z M 184.695312 393.160156 C 199.535156 403.535156 232.625 408.914062 265.441406 408.914062 C 298.261719 408.914062 331.363281 403.535156 346.1875 393.160156 L 346.1875 429.101562 L 269.480469 429.101562 C 262.792969 429.101562 257.367188 434.527344 257.367188 441.210938 L 257.367188 453.183594 C 212.261719 451.953125 184.695312 440.882812 184.695312 433.136719 Z M 184.695312 340.675781 C 199.535156 351.050781 232.625 356.429688 265.441406 356.429688 C 298.261719 356.429688 331.363281 351.050781 346.1875 340.675781 L 346.1875 380.652344 C 346.1875 388.886719 314.742188 400.839844 265.441406 400.839844 C 216.160156 400.839844 184.695312 388.886719 184.695312 380.652344 Z M 265.441406 307.980469 C 314.742188 307.980469 346.1875 319.9375 346.1875 328.167969 C 346.1875 336.402344 314.742188 348.355469 265.441406 348.355469 C 216.160156 348.355469 184.695312 336.402344 184.695312 328.167969 C 184.695312 319.9375 216.160156 307.980469 265.441406 307.980469 Z M 406.746094 429.101562 L 354.261719 429.101562 L 354.261719 328.167969 C 354.261719 309.621094 309.585938 299.90625 265.441406 299.90625 C 221.300781 299.90625 176.621094 309.621094 176.621094 328.167969 L 176.621094 481.585938 C 176.621094 498.808594 216.601562 508.617188 257.367188 509.71875 L 257.367188 530.035156 C 257.367188 536.71875 262.792969 542.144531 269.480469 542.144531 L 406.746094 542.144531 C 413.433594 542.144531 418.859375 536.71875 418.859375 530.035156 L 418.859375 441.210938 C 418.859375 434.527344 413.433594 429.101562 406.746094 429.101562 " fill-opacity="1" fill-rule="nonzero"/></g><path fill="#ffffff" d="M 345.003906 498.917969 C 343.429688 497.339844 340.875 497.339844 339.296875 498.917969 C 337.71875 500.496094 337.71875 503.050781 339.296875 504.625 L 340.179688 505.511719 C 339.515625 505.683594 338.824219 505.808594 338.113281 505.808594 C 333.667969 505.808594 330.039062 502.183594 330.039062 497.734375 L 330.039062 473.511719 C 330.039062 469.0625 333.667969 465.4375 338.113281 465.4375 C 342.5625 465.4375 346.1875 469.0625 346.1875 473.511719 L 346.1875 497.734375 C 346.1875 498.445312 346.0625 499.136719 345.886719 499.800781 Z M 338.113281 457.363281 C 329.203125 457.363281 321.964844 464.601562 321.964844 473.511719 L 321.964844 497.734375 C 321.964844 506.644531 329.203125 513.882812 338.113281 513.882812 C 341.09375 513.882812 343.871094 513.015625 346.265625 511.597656 L 347.371094 512.703125 C 348.160156 513.488281 349.183594 513.882812 350.226562 513.882812 C 351.265625 513.882812 352.292969 513.488281 353.078125 512.703125 C 354.65625 511.125 354.65625 508.570312 353.078125 506.992188 L 351.976562 505.886719 C 353.394531 503.492188 354.261719 500.714844 354.261719 497.734375 L 354.261719 473.511719 C 354.261719 464.601562 347.023438 457.363281 338.113281 457.363281 " fill-opacity="1" fill-rule="nonzero"/><path fill="#ffffff" d="M 297.742188 465.4375 C 302.1875 465.4375 305.816406 469.0625 305.816406 473.511719 C 305.816406 475.734375 307.628906 477.546875 309.851562 477.546875 C 312.078125 477.546875 313.890625 475.734375 313.890625 473.511719 C 313.890625 464.601562 306.652344 457.363281 297.742188 457.363281 C 288.832031 457.363281 281.589844 464.601562 281.589844 473.511719 C 281.589844 482.421875 288.832031 489.660156 297.742188 489.660156 C 302.1875 489.660156 305.816406 493.289062 305.816406 497.734375 C 305.816406 502.183594 302.1875 505.808594 297.742188 505.808594 C 293.292969 505.808594 289.667969 502.183594 289.667969 497.734375 C 289.667969 495.511719 287.851562 493.699219 285.628906 493.699219 C 283.40625 493.699219 281.589844 495.511719 281.589844 497.734375 C 281.589844 506.644531 288.832031 513.882812 297.742188 513.882812 C 306.652344 513.882812 313.890625 506.644531 313.890625 497.734375 C 313.890625 488.824219 306.652344 481.585938 297.742188 481.585938 C 293.292969 481.585938 289.667969 477.957031 289.667969 473.511719 C 289.667969 469.0625 293.292969 465.4375 297.742188 465.4375 " fill-opacity="1" fill-rule="nonzero"/><path fill="#ffffff" d="M 390.597656 505.808594 L 370.410156 505.808594 L 370.410156 461.398438 C 370.410156 459.175781 368.597656 457.363281 366.375 457.363281 C 364.152344 457.363281 362.335938 459.175781 362.335938 461.398438 L 362.335938 509.847656 C 362.335938 512.070312 364.152344 513.882812 366.375 513.882812 L 390.597656 513.882812 C 392.820312 513.882812 394.636719 512.070312 394.636719 509.847656 C 394.636719 507.625 392.820312 505.808594 390.597656 505.808594 " fill-opacity="1" fill-rule="nonzero"/></svg>